nColumns=19
nRows=115
DataType=double
version=3
OpenSimVersion=4.1
endheader
time	ground_force_calcn_r_vx	ground_force_calcn_r_vy	ground_force_calcn_r_vz	ground_force_calcn_r_px	ground_force_calcn_r_py	ground_force_calcn_r_pz	ground_force_calcn_r_mx	ground_force_calcn_r_my	ground_force_calcn_r_mz	ground_force_calcn_l_vx	ground_force_calcn_l_vy	ground_force_calcn_l_vz	ground_force_calcn_l_px	ground_force_calcn_l_py	ground_force_calcn_l_pz	ground_force_calcn_l_mx	ground_force_calcn_l_my	ground_force_calcn_l_mz
0.43	-7.89238	69.9335	-5.73655	0.961843	0	-0.28796	-1.27477	11.2956	-0.926562	0	0	0	0	0	0	0	0	0
0.44	-4.01583	210.669	-15.8133	1.04142	0	-0.269266	-0.123179	6.46192	-0.485048	0	0	0	0	0	0	0	0	0
0.45	7.37648	481.249	-22.3862	1.04707	0	-0.267968	0.0381058	2.48606	-0.115644	0	0	0	0	0	0	0	0	0
0.46	-1.49372	790.959	5.25351	1.04995	0	-0.26753	-0.00440623	2.3332	0.015497	0	0	0	0	0	0	0	0	0
0.47	-49.4792	958.676	50.208	1.05229	0	-0.267276	-0.185838	3.60067	0.188575	0	0	0	0	0	0	0	0	0
0.48	-116.993	962.001	40.8028	1.05397	0	-0.267002	-0.388164	3.19177	0.135377	0	0	0	0	0	0	0	0	0
0.49	-177.763	955.877	-17.3817	1.05103	0	-0.265857	-0.183346	0.985895	-0.0179276	0	0	0	0	0	0	0	0	0
0.5	-212.255	1042.28	-49.9725	1.03837	0	-0.263896	0.189105	-0.928602	0.0445223	0	0	0	0	0	0	0	0	0
0.51	-212.765	1189.36	-39.949	1.01716	0	-0.262306	0.198978	-1.11229	0.0373603	0	0	0	0	0	0	0	0	0
0.52	-190.886	1321.5	-30.4601	0.992937	0	-0.26153	-0.0158149	0.109486	-0.00252362	0	0	0	0	0	0	0	0	0
0.53	-160.075	1405.28	-33.8913	0.969152	0	-0.261191	-0.156425	1.37323	-0.0331184	0	0	0	0	0	0	0	0	0
0.54	-130.299	1447.37	-36.3918	0.94637	0	-0.260753	-0.156565	1.73914	-0.0437278	0	0	0	0	0	0	0	0	0
0.55	-103.563	1457.36	-37.6216	0.924249	0	-0.259864	-0.0895535	1.26021	-0.0325322	0	0	0	0	0	0	0	0	0
0.56	-79.7443	1439.59	-41.2567	0.902385	0	-0.258428	-0.0279228	0.504077	-0.0144462	0	0	0	0	0	0	0	0	0
0.57	-54.6419	1404	-48.8458	0.880201	0	-0.256606	0.00248656	-0.0638909	0.0022228	0	0	0	0	0	0	0	0	0
0.58	-23.0636	1360.73	-58.7231	0.856971	0	-0.254775	0.00488793	-0.288383	0.0124454	0	0	0	0	0	0	0	0	0
0.59	15.0532	1313.6	-59.7195	0.832207	0	-0.253367	-0.00232185	-0.202613	0.00921129	0	0	0	0	0	0	0	0	0
0.6	55.8842	1258.74	-49.1011	0.805799	0	-0.252702	0.00571541	0.128734	-0.00502168	0	0	0	0	0	0	0	0	0
0.61	94.4266	1187.31	-36.6417	0.777835	0	-0.252891	0.050112	0.630101	-0.0194456	0	0	0	0	0	0	0	0	0
0.62	127.483	1096.51	-23.4048	0.748626	0	-0.253769	0.132514	1.13978	-0.0243284	0	0	0	0	0	0	0	0	0
0.63	153.572	990.335	-5.48362	0.71904	0	-0.254977	0.21858	1.40955	-0.00780489	0	0	0	0	0	0	0	0	0
0.64	167.43	868.417	13.5627	0.690508	0	-0.256133	0.243643	1.26371	0.0197363	0	0	0	0	0	0	0	0	0
0.65	164.535	727.675	26.451	0.66431	0	-0.256905	0.177092	0.783209	0.0284697	0	0	0	0	0	0	0	0	0
0.66	144.836	571.507	30.8192	0.640726	0	-0.256922	0.0794201	0.313382	0.0168995	0	0	0	0	0	0	0	0	0
0.67	112.079	414.905	28.0207	0.618687	0	-0.255596	0.0714735	0.264588	0.017869	0	0	0	0	0	0	0	0	0
0.68	76.2969	279.661	18.175	0.595184	0	-0.251778	0.230635	0.845378	0.0549405	0	0	0	0	0	0	0	0	0
0.69	50.1785	175.704	5.41198	0.56266	0	-0.242979	0.535598	1.87544	0.0577667	0	0	0	0	0	0	0	0	0
0.7	35.1954	100.914	-2.60748	0.504623	0	-0.222798	0.954052	2.73549	-0.0706817	0	0	0	0	0	0	0	0	0
0.71	23.1176	53.0589	-3.35227	0.413391	0	-0.182648	1.2354	2.83546	-0.179145	0	0	0	0	0	0	0	0	0
0.72	0	0	0	0	0	0	0	0	0	0	0	0	0	0	0	0	0	0
0.73	0	0	0	0	0	0	0	0	0	0	0	0	0	0	0	0	0	0
0.74	0	0	0	0	0	0	0	0	0	0	0	0	0	0	0	0	0	0
0.75	0	0	0	0	0	0	0	0	0	0	0	0	0	0	0	0	0	0
0.76	0	0	0	0	0	0	0	0	0	0	0	0	0	0	0	0	0	0
0.77	0	0	0	0	0	0	0	0	0	0	0	0	0	0	0	0	0	0
0.78	0	0	0	0	0	0	0	0	0	0	0	0	0	0	0	0	0	0
0.79	0	0	0	0	0	0	0	0	0	-9.02277	87.3017	-4.63995	0.999064	0	-0.336665	0.0873212	-0.844894	0.0449048
0.8	0	0	0	0	0	0	0	0	0	-6.10701	245.639	-14.392	1.06035	0	-0.321702	0.0224533	-0.90313	0.0529144
0.81	0	0	0	0	0	0	0	0	0	-4.87548	517.886	-23.4903	1.07072	0	-0.318104	-0.00094599	0.100485	-0.00455783
0.82	0	0	0	0	0	0	0	0	0	-31.0894	795.7	-15.4608	1.07505	0	-0.316831	-0.0468468	1.19899	-0.0232969
0.83	0	0	0	0	0	0	0	0	0	-86.8183	928.319	-6.28259	1.07686	0	-0.317376	-0.142001	1.51837	-0.0102758
0.84	0	0	0	0	0	0	0	0	0	-139.131	918.851	-21.8397	1.07487	0	-0.31969	-0.157975	1.0433	-0.0247977
0.85	0	0	0	0	0	0	0	0	0	-171.297	903.736	-34.2586	1.06503	0	-0.323097	-0.0847594	0.447177	-0.0169515
0.86	0	0	0	0	0	0	0	0	0	-189.249	971.97	-5.64971	1.0454	0	-0.325801	-0.0465034	0.238838	-0.00138828
0.87	0	0	0	0	0	0	0	0	0	-190.675	1098.32	33.4245	1.02036	0	-0.326585	-0.0557918	0.321369	0.00978006
0.88	0	0	0	0	0	0	0	0	0	-172.283	1216.21	33.8578	0.995202	0	-0.326234	-0.048956	0.345599	0.00962105
0.89	0	0	0	0	0	0	0	0	0	-141.801	1295.67	15.4676	0.971032	0	-0.325913	-0.0243419	0.222416	0.0026552
0.9	0	0	0	0	0	0	0	0	0	-111.217	1344.36	14.4991	0.94709	0	-0.326124	-0.0114791	0.138756	0.00149651
0.91	0	0	0	0	0	0	0	0	0	-84.6246	1369.32	25.0561	0.92315	0	-0.326975	-0.0132615	0.214587	0.00392655
0.92	0	0	0	0	0	0	0	0	0	-63.1996	1367.65	33.3204	0.899709	0	-0.328398	-0.0179808	0.389107	0.00947992
0.93	0	0	0	0	0	0	0	0	0	-42.4722	1344.16	38.7488	0.877119	0	-0.330138	-0.0196198	0.620926	0.0178997
0.94	0	0	0	0	0	0	0	0	0	-15.4644	1310.69	44.1124	0.855008	0	-0.331775	-0.0119315	1.01126	0.0340347
0.95	0	0	0	0	0	0	0	0	0	19.0936	1271.89	50.4311	0.832503	0	-0.332901	0.0249361	1.66108	0.0658627
0.96	0	0	0	0	0	0	0	0	0	56.7529	1224.24	50.5383	0.808768	0	-0.333254	0.114439	2.46861	0.101907
0.97	0	0	0	0	0	0	0	0	0	93.5487	1162.47	40.1231	0.783304	0	-0.332721	0.250922	3.11806	0.107621
0.98	0	0	0	0	0	0	0	0	0	128.042	1084.18	23.3498	0.756102	0	-0.331325	0.387304	3.27945	0.0706288
0.99	0	0	0	0	0	0	0	0	0	157.271	989.105	6.3565	0.727802	0	-0.329282	0.455192	2.86278	0.0183977
1	0	0	0	0	0	0	0	0	0	175.07	876.139	-8.23348	0.699502	0	-0.327015	0.423725	2.12053	-0.0199276
1.01	0	0	0	0	0	0	0	0	0	177.211	744.995	-21.0483	0.672119	0	-0.324986	0.352399	1.48149	-0.0418564
1.02	0	0	0	0	0	0	0	0	0	164.192	598.496	-28.4501	0.645851	0	-0.323528	0.339732	1.23835	-0.0588664
1.03	0	0	0	0	0	0	0	0	0	137.681	446.171	-26.3602	0.62027	0	-0.322818	0.415977	1.34802	-0.0796426
1.04	0	0	0	0	0	0	0	0	0	100.773	307.483	-19.6218	0.594462	0	-0.322968	0.494217	1.50797	-0.0962302
1.05	0	0	0	0	0	0	0	0	0	63.5258	198.865	-13.4424	0.565354	0	-0.324042	0.454079	1.42148	-0.0960853
1.06	0	0	0	0	0	0	0	0	0	37.6929	121.47	-6.02067	0.522315	0	-0.325071	0.312245	1.00625	-0.0498747
1.07	0	0	0	0	0	0	0	0	0	23.0475	69.9699	0.89964	0.444227	0	-0.321531	0.151105	0.45874	0.00589827
1.08	0	0	0	0	0	0	0	0	0	0	0	0	0	0	0	0	0	0
1.09	0	0	0	0	0	0	0	0	0	0	0	0	0	0	0	0	0	0
1.1	0	0	0	0	0	0	0	0	0	0	0	0	0	0	0	0	0	0
1.11	0	0	0	0	0	0	0	0	0	0	0	0	0	0	0	0	0	0
1.12	0	0	0	0	0	0	0	0	0	0	0	0	0	0	0	0	0	0
1.13	0	0	0	0	0	0	0	0	0	0	0	0	0	0	0	0	0	0
1.14	0	0	0	0	0	0	0	0	0	0	0	0	0	0	0	0	0	0
1.15	0	0	0	0	0	0	0	0	0	0	0	0	0	0	0	0	0	0
1.16	-0.853217	115.327	-6.88153	1.01664	0	-0.273716	-0.0135342	1.82937	-0.109158	0	0	0	0	0	0	0	0	0
1.17	9.17682	327.079	-17.3798	1.04029	0	-0.278822	0.0135796	0.484003	-0.0257182	0	0	0	0	0	0	0	0	0
1.18	10.1036	672.841	-10.1388	1.04626	0	-0.279693	0.025196	1.67791	-0.0252837	0	0	0	0	0	0	0	0	0
1.19	-30.7315	985.163	38.125	1.04986	0	-0.280314	-0.124272	3.98379	0.154169	0	0	0	0	0	0	0	0	0
1.2	-105.432	1093.65	74.6849	1.05245	0	-0.281126	-0.455341	4.72327	0.32255	0	0	0	0	0	0	0	0	0
1.21	-174.95	1068.31	38.6866	1.05197	0	-0.281543	-0.483785	2.95419	0.106979	0	0	0	0	0	0	0	0	0
1.22	-216.107	1081.92	-20.4704	1.04331	0	-0.280663	-0.0345154	0.172798	-0.00326941	0	0	0	0	0	0	0	0	0
1.23	-222.473	1186.41	-36.728	1.02446	0	-0.278874	0.279768	-1.49196	0.046187	0	0	0	0	0	0	0	0	0
1.24	-205.575	1317.61	-27.6445	1.00025	0	-0.277287	0.196679	-1.2606	0.0264482	0	0	0	0	0	0	0	0	0
1.25	-176.965	1410.81	-26.766	0.975847	0	-0.276365	0.000697853	-0.00556346	0.00010555	0	0	0	0	0	0	0	0	0
1.26	-143.378	1457.78	-29.0116	0.952586	0	-0.275834	-0.0895665	0.910657	-0.0181232	0	0	0	0	0	0	0	0	0
1.27	-110.03	1472.76	-30.1147	0.929886	0	-0.27524	-0.0685308	0.917287	-0.0187565	0	0	0	0	0	0	0	0	0
1.28	-82.1186	1459.76	-33.4001	0.907318	0	-0.274301	-0.0195054	0.346732	-0.00793343	0	0	0	0	0	0	0	0	0
1.29	-59.6047	1423.14	-38.1186	0.884719	0	-0.27298	0.00950574	-0.226962	0.00607914	0	0	0	0	0	0	0	0	0
1.3	-34.2981	1374.23	-44.2815	0.861707	0	-0.2715	0.0125229	-0.501758	0.016168	0	0	0	0	0	0	0	0	0
1.31	-0.323255	1321.46	-47.6676	0.837666	0	-0.270265	0.00011257	-0.460186	0.0165997	0	0	0	0	0	0	0	0	0
1.32	41.2715	1265.49	-41.3637	0.812175	0	-0.269659	-0.00468451	-0.143639	0.00469498	0	0	0	0	0	0	0	0	0
1.33	82.0613	1198.97	-27.9789	0.785254	0	-0.269859	0.0303804	0.443877	-0.0103582	0	0	0	0	0	0	0	0	0
1.34	115.203	1114.6	-15.0193	0.757187	0	-0.270755	0.124851	1.20795	-0.0162772	0	0	0	0	0	0	0	0	0
1.35	140.821	1011.86	-1.84401	0.728472	0	-0.272004	0.255723	1.83748	-0.00334862	0	0	0	0	0	0	0	0	0
1.36	157.412	892.172	15.2468	0.699947	0	-0.273217	0.344015	1.94979	0.0333208	0	0	0	0	0	0	0	0	0
1.37	158.336	753.952	30.4084	0.672619	0	-0.274119	0.305969	1.45695	0.0587616	0	0	0	0	0	0	0	0	0
1.38	141.272	598.888	36.1683	0.647132	0	-0.274464	0.177156	0.751007	0.0453552	0	0	0	0	0	0	0	0	0
1.39	110.427	439.327	32.3666	0.623308	0	-0.273833	0.113976	0.453449	0.0334071	0	0	0	0	0	0	0	0	0
1.4	75.271	297.551	21.6229	0.599683	0	-0.271367	0.236167	0.933583	0.0678431	0	0	0	0	0	0	0	0	0
1.41	48.3046	188.507	8.24035	0.57142	0	-0.265324	0.509045	1.98653	0.0868387	0	0	0	0	0	0	0	0	0
1.42	34.1319	110.338	-0.99543	0.525351	0	-0.251051	0.882074	2.85147	-0.025725	0	0	0	0	0	0	0	0	0
1.43	25.3922	58.3692	-3.10291	0.445818	0	-0.219067	1.21037	2.7823	-0.147907	0	0	0	0	0	0	0	0	0
1.44	0	0	0	0	0	0	0	0	0	0	0	0	0	0	0	0	0	0
1.45	0	0	0	0	0	0	0	0	0	0	0	0	0	0	0	0	0	0
1.46	0	0	0	0	0	0	0	0	0	0	0	0	0	0	0	0	0	0
1.47	0	0	0	0	0	0	0	0	0	0	0	0	0	0	0	0	0	0
1.48	0	0	0	0	0	0	0	0	0	0	0	0	0	0	0	0	0	0
1.49	0	0	0	0	0	0	0	0	0	0	0	0	0	0	0	0	0	0
1.5	0	0	0	0	0	0	0	0	0	0	0	0	0	0	0	0	0	0
1.51	0	0	0	0	0	0	0	0	0	2.48779	65.599	-3.63039	0.931693	0	-0.391581	0.00319076	0.0841353	-0.00465624
1.52	0	0	0	0	0	0	0	0	0	16.5636	198.866	-11.3791	1.03767	0	-0.337885	-0.00431337	-0.0517872	0.00296325
1.53	0	0	0	0	0	0	0	0	0	29.539	447.82	-22.1843	1.04443	0	-0.332118	0.0271205	0.411154	-0.0203679
1.54	0	0	0	0	0	0	0	0	0	11.4136	731.777	-20.4201	1.04614	0	-0.330062	0.0148031	0.949092	-0.0264843
1.55	0	0	0	0	0	0	0	0	0	-40.2683	900.744	-12.3016	1.04586	0	-0.330154	-0.0459949	1.02884	-0.014051
1.56	0	0	0	0	0	0	0	0	0	-96.822	920.253	-23.3019	1.04273	0	-0.332295	-0.0610065	0.579842	-0.0146823
1.57	0	0	0	0	0	0	0	0	0	-139.59	900.258	-33.6802	1.03396	0	-0.336054	-0.000865065	0.00557906	-0.000208722
